<?xml version="1.0" standalone="no"?><!DOCTYPE svg PUBLIC "-//W3C//DTD SVG 1.1//EN" "http://www.w3.org/Graphics/SVG/1.1/DTD/svg11.dtd"><svg t="1752896589399" class="icon" viewBox="0 0 1024 1024" version="1.1" xmlns="http://www.w3.org/2000/svg" p-id="3114" xmlns:xlink="http://www.w3.org/1999/xlink" width="200" height="200"><path d="M753.2 362.9c-8.9 0-16.1-7.2-16.1-16.1V232.2c0-2.1-3.4-5.2-8.7-5.2h-33c-5.3 0-8.7 3.1-8.7 5.2v34.1c0 8.9-7.2 16.1-16.1 16.1s-16.1-7.2-16.1-16.1v-34.1c0-20.6 18.3-37.4 40.9-37.4h33c22.5 0 40.9 16.8 40.9 37.4v114.6c0.1 8.9-7.2 16.1-16.1 16.1z" fill="#2c2c2c" p-id="3115"></path><path d="M597.3 844.8H426.7c-11.3 0-20.5-9.2-20.5-20.5V610.5c0-32.3 26.2-58.5 58.5-58.5h94.6c32.3 0 58.5 26.2 58.5 58.5v213.8c0 11.3-9.2 20.5-20.5 20.5z m-158.9-32.3h147.1v-202c0-14.5-11.8-26.3-26.3-26.3h-94.6c-14.5 0-26.3 11.8-26.3 26.3v202z" fill="#2c2c2c" p-id="3116"></path><path d="M824.4 463.7L546.9 193.1c-18.9-18.4-50.8-18.4-69.8 0L199.6 463.7c-12.3 12-16.1 29-9.8 44.4 7 17.2 24.5 28.3 44.7 28.3h19.7v253.1c0 30.5 27.7 55.3 61.7 55.3H358c8.9 0 16.1-7.2 16.1-16.1 0-8.9-7.2-16.1-16.1-16.1h-42.1c-16.2 0-29.4-10.4-29.4-23.1V520.3c0-8.9-7.2-16.1-16.1-16.1h-35.8c-8.5 0-13.3-4.4-14.8-8.2-1.3-3.3-0.5-6.3 2.5-9.2l277.6-270.6c3.1-3 7.8-4.6 12.4-4.6s9.3 1.5 12.4 4.6l277.6 270.6c3 2.9 3.8 5.9 2.5 9.2-1.5 3.8-6.3 8.2-14.8 8.2h-35.8c-8.9 0-16.1 7.2-16.1 16.1v269.2c0 12.7-13.2 23.1-29.4 23.1h-42.1c-8.9 0-16.1 7.2-16.1 16.1 0 8.9 7.2 16.1 16.1 16.1h42.1c34 0 61.7-24.8 61.7-55.3V536.4h19.7c20.2 0 37.7-11.1 44.7-28.3 5.7-15.4 2-32.4-10.4-44.4z" fill="#2c2c2c" p-id="3117"></path></svg>