<?xml version="1.0" standalone="no"?><!DOCTYPE svg PUBLIC "-//W3C//DTD SVG 1.1//EN" "http://www.w3.org/Graphics/SVG/1.1/DTD/svg11.dtd"><svg t="1752896801209" class="icon" viewBox="0 0 1024 1024" version="1.1" xmlns="http://www.w3.org/2000/svg" p-id="6612" data-spm-anchor-id="a313x.collections_detail.0.i30.47513a81QJ55II" xmlns:xlink="http://www.w3.org/1999/xlink" width="200" height="200"><path d="M657.6 391.6h-52.7c-24 0-43.5-19.5-43.5-43.5v-52.7c0-24 19.5-43.5 43.5-43.5h52.7c24 0 43.5 19.5 43.5 43.5v52.7c0 24-19.5 43.5-43.5 43.5z m-52.7-107.5c-6.2 0-11.3 5.1-11.3 11.3v52.7c0 6.2 5.1 11.3 11.3 11.3h52.7c6.2 0 11.3-5.1 11.3-11.3v-52.7c0-6.2-5.1-11.3-11.3-11.3h-52.7zM657.6 584h-52.7c-24 0-43.5-19.5-43.5-43.5v-52.7c0-24 19.5-43.5 43.5-43.5h52.7c24 0 43.5 19.5 43.5 43.5v52.7c0 24-19.5 43.5-43.5 43.5z m-52.7-107.5c-6.2 0-11.3 5.1-11.3 11.3v52.7c0 6.2 5.1 11.3 11.3 11.3h52.7c6.2 0 11.3-5.1 11.3-11.3v-52.7c0-6.2-5.1-11.3-11.3-11.3h-52.7zM657.6 776.3h-52.7c-24 0-43.5-19.5-43.5-43.5v-52.7c0-24 19.5-43.5 43.5-43.5h52.7c24 0 43.5 19.5 43.5 43.5v52.7c0 24-19.5 43.5-43.5 43.5z m-52.7-107.5c-6.2 0-11.3 5.1-11.3 11.3v52.7c0 6.2 5.1 11.3 11.3 11.3h52.7c6.2 0 11.3-5.1 11.3-11.3v-52.7c0-6.2-5.1-11.3-11.3-11.3h-52.7z" fill="#2c2c2c" p-id="6613" data-spm-anchor-id="a313x.collections_detail.0.i29.47513a81QJ55II" class="selected"></path><path d="M635.9 750.5c-5.9 0-11.5-3.3-14.3-8.7-14.9-28.7-32.8-32.2-33-32.2-8.9-0.9-15.3-8.7-14.5-17.6 0.9-8.9 8.8-15.3 17.6-14.5 2.5 0.2 19.4 2.5 37.3 20.1 11.2-31.7 34.9-74 81.3-76.4 8.9-0.5 16.5 6.4 16.9 15.3 0.5 8.9-6.4 16.5-15.3 16.9-18.7 1-34.3 14.4-46.4 39.9-10.2 21.5-13.7 43.4-13.8 43.6-1.1 6.9-6.5 12.3-13.3 13.4-0.8 0.1-1.7 0.2-2.5 0.2zM474.7 337.9H312.9c-8.9 0-16.1-7.2-16.1-16.1s7.2-16.1 16.1-16.1h161.8c8.9 0 16.1 7.2 16.1 16.1s-7.2 16.1-16.1 16.1zM474.7 530.2H312.9c-8.9 0-16.1-7.2-16.1-16.1 0-8.9 7.2-16.1 16.1-16.1h161.8c8.9 0 16.1 7.2 16.1 16.1 0 8.9-7.2 16.1-16.1 16.1zM474.7 722.6H312.9c-8.9 0-16.1-7.2-16.1-16.1s7.2-16.1 16.1-16.1h161.8c8.9 0 16.1 7.2 16.1 16.1s-7.2 16.1-16.1 16.1z" fill="#1afa29" p-id="6614" data-spm-anchor-id="a313x.collections_detail.0.i28.47513a81QJ55II" class=""></path><path d="M705.4 900.8H318.6c-69.2 0-125.5-56.3-125.5-125.5V256.4c0-69.2 56.3-125.5 125.5-125.5h386.8c69.2 0 125.5 56.3 125.5 125.5v518.9c0 69.2-56.3 125.5-125.5 125.5zM318.6 163.1c-51.4 0-93.3 41.9-93.3 93.3v518.9c0 51.4 41.9 93.3 93.3 93.3h386.8c51.4 0 93.3-41.9 93.3-93.3V256.4c0-51.4-41.9-93.3-93.3-93.3H318.6z" fill="#333333" p-id="6615"></path></svg>